<?xml version="1.0" standalone="no"?>
<!DOCTYPE svg PUBLIC "-//W3C//DTD SVG 20010904//EN"
 "http://www.w3.org/TR/2001/REC-SVG-20010904/DTD/svg10.dtd">
<svg version="1.0" xmlns="http://www.w3.org/2000/svg"
 width="300.000000pt" height="166.000000pt" viewBox="0 0 300.000000 166.000000"
 preserveAspectRatio="xMidYMid meet">
<metadata>
Created by potrace 1.10, written by Peter Selinger 2001-2011
</metadata>
<g transform="translate(0.000000,166.000000) scale(0.100000,-0.100000)"
fill="#000000" stroke="none">
<path d="M823 1490 c-115 -21 -254 -89 -339 -167 -293 -268 -282 -751 24
-1006 119 -100 266 -152 432 -151 259 0 488 141 599 366 189 382 -18 837 -429
943 -78 20 -217 27 -287 15z m317 -38 c95 -31 186 -88 260 -162 122 -123 180
-256 187 -430 4 -97 3 -108 -19 -140 -53 -79 -222 -158 -408 -191 -121 -21
-365 -16 -490 10 -168 36 -303 101 -362 176 -19 24 -23 43 -25 105 -8 301 210
577 512 649 70 17 271 7 345 -17z m-736 -836 c151 -90 392 -133 642 -115 210
14 398 76 490 160 46 43 47 43 40 16 -28 -113 -114 -259 -197 -330 -69 -60
-163 -114 -239 -139 -81 -26 -246 -35 -333 -18 -228 44 -435 234 -501 459 -21
71 -21 71 12 33 15 -17 53 -47 86 -66z"/>
<path d="M820 1089 c-135 -9 -287 -45 -378 -90 -64 -31 -152 -105 -152 -127 0
-6 20 8 44 32 163 163 621 225 955 130 114 -33 179 -65 240 -120 59 -53 69
-43 14 12 -78 78 -282 149 -458 159 -49 3 -103 7 -120 8 -16 2 -82 0 -145 -4z"/>
<path d="M920 845 c-15 -18 3 -47 24 -39 7 3 53 -21 102 -54 169 -110 274
-175 280 -170 5 5 -219 154 -317 212 -26 14 -49 35 -52 46 -6 24 -20 26 -37 5z"/>
<path d="M1240 832 c-14 -2 -29 -8 -35 -14 -7 -8 -4 -9 8 -5 18 7 18 -1 0 -49
-2 -7 0 -15 6 -18 6 -4 14 8 19 26 6 22 14 32 25 30 8 -1 18 2 21 7 9 14 -16
27 -44 23z"/>
<path d="M2330 905 c-13 -15 -5 -39 11 -29 5 3 6 10 3 16 -4 6 1 8 11 6 30 -5
28 -24 -4 -61 -17 -19 -31 -38 -31 -41 0 -4 17 -6 37 -4 27 2 39 8 41 21 3 16
1 17 -17 7 -27 -14 -27 1 -1 25 11 10 20 26 20 35 0 36 -46 53 -70 25z"/>
<path d="M2676 824 c-4 -11 -2 -15 7 -11 8 3 14 -4 15 -20 2 -22 0 -24 -13
-13 -12 10 -15 10 -15 -3 0 -19 26 -29 38 -14 15 20 9 71 -9 75 -9 2 -19 -4
-23 -14z"/>
<path d="M1965 813 c3 -10 9 -39 12 -65 3 -27 9 -48 13 -48 4 0 25 25 45 55
21 30 42 55 47 55 4 0 8 5 8 10 0 6 -12 10 -26 10 -14 0 -23 -4 -19 -10 4 -6
-4 -27 -16 -47 l-23 -37 -7 34 c-4 20 -4 36 2 38 19 7 8 22 -17 22 -21 0 -25
-4 -19 -17z"/>
<path d="M2590 776 c-6 -6 -10 -15 -10 -20 0 -6 5 -4 11 4 7 11 8 3 3 -29 -7
-50 10 -51 21 -1 6 29 25 52 25 30 0 -6 5 -8 11 -5 5 4 8 12 6 18 -5 15 -53
17 -67 3z"/>
<path d="M2487 773 c-13 -12 -7 -22 9 -16 13 5 14 0 8 -33 -4 -27 -3 -36 4
-29 6 6 12 21 14 35 2 17 10 26 26 28 12 2 22 8 22 13 0 10 -73 13 -83 2z"/>
<path d="M2113 764 c8 -9 117 -10 117 -2 0 5 -28 8 -62 8 -34 0 -59 -3 -55 -6z"/>
<path d="M2300 740 c0 -6 28 -10 65 -10 37 0 65 4 65 10 0 6 -28 10 -65 10
-37 0 -65 -4 -65 -10z"/>
<path d="M2110 730 c0 -6 26 -10 59 -10 33 0 63 5 66 10 4 6 -18 10 -59 10
-37 0 -66 -4 -66 -10z"/>
<path d="M2347 689 c-18 -11 -24 -39 -7 -39 6 0 10 7 10 15 0 18 16 20 26 3 4
-6 -1 -17 -11 -24 -16 -12 -17 -14 -2 -20 20 -7 23 -44 3 -44 -8 0 -17 8 -20
17 -5 12 -10 13 -18 5 -8 -8 -8 -15 2 -27 29 -35 87 6 63 45 -8 12 -9 21 -3
25 31 19 -11 61 -43 44z"/>
</g>
</svg>
